[Header]
FileType HTR
DataType HTRS
FileVersion 1
NumSegments 64
NumFrames 3
DataFrameRate 30
EulerRotationOrder ZYX
CalibrationUnits mm
RotationUnits Degrees
GlobalAxisofGravity Y
BoneLengthAxis Y
ScaleFactor 1.0
[SegmentNames&Hierarchy]
Hips	GLOBAL
Spine	Hips
Spine1	Spine
Spine2	Spine1
Neck	Spine2
Head	Neck
LeftEye	Head
RightEye	Head
LeftShoulder	Spine2
LeftArm	LeftShoulder
LeftForeArm	LeftArm
LeftHand	LeftForeArm
LeftHandThumb1	LeftHand
LeftHandThumb2	LeftHandThumb1
LeftHandThumb3	LeftHandThumb2
LeftHandThumb4	LeftHandThumb3
LeftHandIndex1	LeftHand
LeftHandIndex2	LeftHandIndex1
LeftHandIndex3	LeftHandIndex2
LeftHandIndex4	LeftHandIndex3
LeftHandMiddle1	LeftHand
LeftHandMiddle2	LeftHandMiddle1
LeftHandMiddle3	LeftHandMiddle2
LeftHandMiddle4	LeftHandMiddle3
LeftHandRing1	LeftHand
LeftHandRing2	LeftHandRing1
LeftHandRing3	LeftHandRing2
LeftHandRing4	LeftHandRing3
LeftHandPinky1	LeftHand
LeftHandPinky2	LeftHandPinky1
LeftHandPinky3	LeftHandPinky2
LeftHandPinky4	LeftHandPinky3
RightShoulder	Spine2
RightArm	RightShoulder
RightForeArm	RightArm
RightHand	RightForeArm
RightHandPinky1	RightHand
RightHandPinky2	RightHandPinky1
RightHandPinky3	RightHandPinky2
RightHandPinky4	RightHandPinky3
RightHandRing1	RightHand
RightHandRing2	RightHandRing1
RightHandRing3	RightHandRing2
RightHandRing4	RightHandRing3
RightHandMiddle1	RightHand
RightHandMiddle2	RightHandMiddle1
RightHandMiddle3	RightHandMiddle2
RightHandMiddle4	RightHandMiddle3
RightHandIndex1	RightHand
RightHandIndex2	RightHandIndex1
RightHandIndex3	RightHandIndex2
RightHandIndex4	RightHandIndex3
RightHandThumb1	RightHand
RightHandThumb2	RightHandThumb1
RightHandThumb3	RightHandThumb2
RightHandThumb4	RightHandThumb3
LeftUpLeg	Hips
LeftLeg	LeftUpLeg
LeftFoot	LeftLeg
LeftToeBase	LeftFoot
RightUpLeg	Hips
RightLeg	RightUpLeg
RightFoot	RightLeg
RightToeBase	RightFoot
[BasePosition]
Hips	0	0	0	0	0	0	1
Spine	0	0	0	0	0	0	1
Spine1	0	0	0	0	0	0	1
Spine2	0	0	0	0	0	0	1
Neck	0	0	0	0	0	0	1
Head	0	0	0	0	0	0	1
LeftEye	0	0	0	0	0	0	1
RightEye	0	0	0	0	0	0	1
LeftShoulder	0	0	0	0	0	0	1
LeftArm	0	0	0	0	0	0	1
LeftForeArm	0	0	0	0	0	0	1
LeftHand	0	0	0	0	0	0	1
LeftHandThumb1	0	0	0	0	0	0	1
LeftHandThumb2	0	0	0	0	0	0	1
LeftHandThumb3	0	0	0	0	0	0	1
LeftHandThumb4	0	0	0	0	0	0	1
LeftHandIndex1	0	0	0	0	0	0	1
LeftHandIndex2	0	0	0	0	0	0	1
LeftHandIndex3	0	0	0	0	0	0	1
LeftHandIndex4	0	0	0	0	0	0	1
LeftHandMiddle1	0	0	0	0	0	0	1
LeftHandMiddle2	0	0	0	0	0	0	1
LeftHandMiddle3	0	0	0	0	0	0	1
LeftHandMiddle4	0	0	0	0	0	0	1
LeftHandRing1	0	0	0	0	0	0	1
LeftHandRing2	0	0	0	0	0	0	1
LeftHandRing3	0	0	0	0	0	0	1
LeftHandRing4	0	0	0	0	0	0	1
LeftHandPinky1	0	0	0	0	0	0	1
LeftHandPinky2	0	0	0	0	0	0	1
LeftHandPinky3	0	0	0	0	0	0	1
LeftHandPinky4	0	0	0	0	0	0	1
RightShoulder	0	0	0	0	0	0	1
RightArm	0	0	0	0	0	0	1
RightForeArm	0	0	0	0	0	0	1
RightHand	0	0	0	0	0	0	1
RightHandPinky1	0	0	0	0	0	0	1
RightHandPinky2	0	0	0	0	0	0	1
RightHandPinky3	0	0	0	0	0	0	1
RightHandPinky4	0	0	0	0	0	0	1
RightHandRing1	0	0	0	0	0	0	1
RightHandRing2	0	0	0	0	0	0	1
RightHandRing3	0	0	0	0	0	0	1
RightHandRing4	0	0	0	0	0	0	1
RightHandMiddle1	0	0	0	0	0	0	1
RightHandMiddle2	0	0	0	0	0	0	1
RightHandMiddle3	0	0	0	0	0	0	1
RightHandMiddle4	0	0	0	0	0	0	1
RightHandIndex1	0	0	0	0	0	0	1
RightHandIndex2	0	0	0	0	0	0	1
RightHandIndex3	0	0	0	0	0	0	1
RightHandIndex4	0	0	0	0	0	0	1
RightHandThumb1	0	0	0	0	0	0	1
RightHandThumb2	0	0	0	0	0	0	1
RightHandThumb3	0	0	0	0	0	0	1
RightHandThumb4	0	0	0	0	0	0	1
LeftUpLeg	0	0	0	0	0	0	1
LeftLeg	0	0	0	0	0	0	1
LeftFoot	0	0	0	0	0	0	1
LeftToeBase	0	0	0	0	0	0	1
RightUpLeg	0	0	0	0	0	0	1
RightLeg	0	0	0	0	0	0	1
RightFoot	0	0	0	0	0	0	1
RightToeBase	0	0	0	0	0	0	1
[Hips]
24	-1322.940674	940.4044189	20.1536026	0.5219007134	-60.67720795	6.719165802	1.0
25	-1387.639893	934.1690063	16.05094528	3.513073683	-60.79557037	2.990327358	1.0
26	-1450.493286	928.5053101	11.55802631	5.528477669	-60.96272278	0.9907841682	1.0
[Spine]
24	0	101.8159943	1.315000057	5.72173357	1.674821377	-0.4554238021	1.0
25	0	101.8159943	1.315000057	5.49217844	2.101183176	1.176205039	1.0
26	0	101.8159943	1.315000057	5.264687538	2.414482117	1.97484684	1.0
[Spine1]
24	0	100.8349991	-10.00800037	4.062936783	3.123979807	-0.2460889816	1.0
25	0	100.8349991	-10.00800037	4.007675648	3.313217163	0.2290907204	1.0
26	0	100.8349991	-10.00800037	3.91425252	3.493372917	0.6096688509	1.0
[Spine2]
24	0	91	-13.73399925	4.064055443	3.124114752	-0.2317840159	1.0
25	0	91	-13.73399925	3.997223139	3.327385664	0.2544676363	1.0
26	0	91	-13.73399925	3.889586449	3.520192385	0.64388448	1.0
[Neck]
24	0	166.7169952	-25.16200066	4.049726486	6.160088062	1.254939795	1.0
25	0	166.7169952	-25.16200066	4.125966072	6.067656517	1.284761667	1.0
26	0	166.7169952	-25.16200066	3.968762875	6.024599075	1.236939549	1.0
[Head]
24	0	96.17900085	16.84999847	-15.00605965	34.85346985	-16.17429161	1.0
25	0	96.17900085	16.84999847	-13.76994419	34.91275406	-16.16647148	1.0
26	0	96.17900085	16.84999847	-14.14957905	34.88166046	-17.27343559	1.0
[LeftEye]
24	30.6760006	64.09500122	92.83599854	0	0	0	1.0
25	30.6760006	64.09500122	92.83599854	0	0	0	1.0
26	30.6760006	64.09500122	92.83599854	0	0	0	1.0
[RightEye]
24	-30.6760006	64.09500122	92.83499908	0	0	0	1.0
25	-30.6760006	64.09500122	92.83499908	0	0	0	1.0
26	-30.6760006	64.09500122	92.83499908	0	0	0	1.0
[LeftShoulder]
24	45.70400238	109.4599991	-26.28000069	-0.03061334789	-5.191228867	-9.475840569	1.0
25	45.70400238	109.4599991	-26.28000069	-0.03326738253	-5.253966808	-9.271997452	1.0
26	45.70400238	109.4599991	-26.28000069	0.02925084159	-5.178408146	-9.061771393	1.0
[LeftArm]
24	105.923996	-5.24600029	-22.32099915	14.58910561	-15.17772198	-65.27878571	1.0
25	105.923996	-5.24600029	-22.32099915	14.69922638	-15.54000378	-66.53952789	1.0
26	105.923996	-5.24600029	-22.32099915	14.90797043	-15.68856144	-67.95985413	1.0
[LeftForeArm]
24	278.414978	-0.0009999999311	0	-2.941050298e-06	-28.65969849	-0.0001985272975	1.0
25	278.414978	-0.0009999999311	0	-5.802151009e-06	-30.68000603	-0.0001997329091	1.0
26	278.414978	-0.0009999999311	0	2.507285672e-06	-32.52321243	-0.0001971221354	1.0
[LeftHand]
24	283.2879944	0	0	6.707138062	-12.01604843	0.1223698482	1.0
25	283.2879944	0	0	7.830540657	-13.74294949	1.500492811	1.0
26	283.2879944	0	0	8.048740387	-16.64200592	2.938256979	1.0
[LeftHandThumb1]
24	24.6609993	-15.75	26.8239994	30.58115005	-20.32058144	11.29641056	1.0
25	24.6609993	-15.75	26.8239994	30.58115005	-20.32058144	11.29641056	1.0
26	24.6609993	-15.75	26.8239994	30.58115005	-20.32058144	11.29641056	1.0
[LeftHandThumb2]
24	32.29800034	-18.64699936	18.64699936	12.10114479	16.52661133	-2.820418596	1.0
25	32.29800034	-18.64699936	18.64699936	11.37767315	16.92187309	-2.463969707	1.0
26	32.29800034	-18.64699936	18.64699936	11.10882473	16.99390221	-2.168536186	1.0
[LeftHandThumb3]
24	26.52600098	-15.31499958	15.31499958	-15.19229507	7.915596008	10.06903362	1.0
25	26.52600098	-15.31499958	15.31499958	-15.15706921	7.998371124	10.04391479	1.0
26	26.52600098	-15.31499958	15.31499958	-15.12328339	8.077691078	10.01983452	1.0
[LeftHandThumb4]
24	19.54599953	-11.28499985	11.28499985	0	0	0	1.0
25	19.54599953	-11.28499985	11.28499985	0	0	0	1.0
26	19.54599953	-11.28499985	11.28499985	0	0	0	1.0
[LeftHandIndex1]
24	91.09299469	-5.170999527	22.60099792	-1.557656407	-5.856842995	-27.04646683	1.0
25	91.09299469	-5.170999527	22.60099792	-1.370204091	-5.98593092	-24.87347603	1.0
26	91.09299469	-5.170999527	22.60099792	-1.165537357	-6.042503834	-22.52251244	1.0
[LeftHandIndex2]
24	36.76399994	0	0	-0.716001749	2.801795244	-28.66581917	1.0
25	36.76399994	0	0	-0.7158948779	2.801586628	-28.66350937	1.0
26	36.76399994	0	0	-0.7134313583	2.797077417	-28.61294937	1.0
[LeftHandIndex3]
24	28.83100128	0	0	-0.2945991158	1.831899285	-18.27036285	1.0
25	28.83100128	0	0	-0.2945231497	1.831685066	-18.2680397	1.0
26	28.83100128	0	0	-0.2928986549	1.826739311	-18.21701241	1.0
[LeftHandIndex4]
24	23.92700005	0	0	0	0	0	1.0
25	23.92700005	0	0	0	0	0	1.0
26	23.92700005	0	0	0	0	0	1.0
[LeftHandMiddle1]
24	95.33399963	0	0	-2.621129513	2.139678001	-37.89998245	1.0
25	95.33399963	0	0	-2.511637449	2.165508509	-36.74230576	1.0
26	95.33399963	0	0	-2.357918739	2.319950342	-35.09267044	1.0
[LeftHandMiddle2]
24	36.98199844	0	0	-0.5554252863	2.485950708	-25.18562317	1.0
25	36.98199844	0	0	-0.5529918075	2.480789185	-25.1296196	1.0
26	36.98199844	0	0	-0.5491122603	2.472473145	-25.03956032	1.0
[LeftHandMiddle3]
24	29.50900078	0	0	-0.3877698779	2.092952013	-20.99048996	1.0
25	29.50900078	0	0	-0.3857083023	2.08758688	-20.93395042	1.0
26	29.50900078	0	0	-0.3823924959	2.078937292	-20.84312248	1.0
[LeftHandMiddle4]
24	28.3390007	0	0	0	0	0	1.0
25	28.3390007	0	0	0	0	0	1.0
26	28.3390007	0	0	0	0	0	1.0
[LeftHandRing1]
24	91.04499817	-0.4390000105	-18.65100098	-2.327186108	2.88758707	-34.74310684	1.0
25	91.04499817	-0.4390000105	-18.65100098	-2.208071947	3.213598728	-33.43233871	1.0
26	91.04499817	-0.4390000105	-18.65100098	-2.072773695	3.586815119	-31.91898918	1.0
[LeftHandRing2]
24	31.54000092	0	0	-0.8606680632	3.051191092	-31.49864388	1.0
25	31.54000092	0	0	-0.859811008	3.049819231	-31.48268127	1.0
26	31.54000092	0	0	-0.8536754251	3.039751291	-31.36681366	1.0
[LeftHandRing3]
24	29.37700081	0	0	-0.9573333859	3.203376293	-33.27054596	1.0
25	29.37700081	0	0	-0.9564653635	3.202027321	-33.25482941	1.0
26	29.37700081	0	0	-0.9499069452	3.192038059	-33.13732147	1.0
[LeftHandRing4]
24	26.47500038	0	0	0	0	0	1.0
25	26.47500038	0	0	0	0	0	1.0
26	26.47500038	0	0	0	0	0	1.0
[LeftHandPinky1]
24	80.77799988	-4.887000084	-38.06099701	-1.980998755	2.091442823	-30.75346947	1.0
25	80.77799988	-4.887000084	-38.06099701	-1.937578917	2.558054924	-30.2394886	1.0
26	80.77799988	-4.887000084	-38.06099701	-1.878675103	3.114400387	-29.5429306	1.0
[LeftHandPinky2]
24	36	0	0	-0.4849179685	2.330238342	-23.50748825	1.0
25	36	0	0	-0.4818205535	2.323094368	-23.4310112	1.0
26	36	0	0	-0.4731340706	2.302993536	-23.21590996	1.0
[LeftHandPinky3]
24	21.14200211	0	0	-0.5552712083	2.485600233	-25.18190765	1.0
25	21.14200211	0	0	-0.5478754044	2.469803572	-25.0106945	1.0
26	21.14200211	0	0	-0.5378928185	2.44835043	-24.77838707	1.0
[LeftHandPinky4]
24	19.75699997	0	0	0	0	0	1.0
25	19.75699997	0	0	0	0	0	1.0
26	19.75699997	0	0	0	0	0	1.0
[RightShoulder]
24	-45.70000076	109.4620056	-26.28000069	2.311934471	3.064220905	9.721020699	1.0
25	-45.70000076	109.4620056	-26.28000069	2.205770016	2.938789368	9.874847412	1.0
26	-45.70000076	109.4620056	-26.28000069	2.0171206	3.150079966	10.00992298	1.0
[RightArm]
24	-105.9280014	-5.248000145	-22.32099915	21.34137154	2.180793285	63.40481567	1.0
25	-105.9280014	-5.248000145	-22.32099915	20.23314476	2.166802883	65.06928253	1.0
26	-105.9280014	-5.248000145	-22.32099915	20.21808815	2.517749548	65.90668488	1.0
[RightForeArm]
24	-278.414978	0	0	2.622018656e-07	11.95394897	-2.064632554e-08	1.0
25	-278.414978	0	0	-6.227296581e-07	9.000232697	-5.563204468e-06	1.0
26	-278.414978	0	0	1.335715865e-06	7.35407877	2.948539986e-06	1.0
[RightHand]
24	-283.2879944	0	0.0009999999311	-0.4153796732	0.6285524368	-2.448482752	1.0
25	-283.2879944	0	0.0009999999311	-0.4407200515	-0.7659893632	-3.364214659	1.0
26	-283.2879944	0	0.0009999999311	-0.8590154052	-1.491670012	-4.684874535	1.0
[RightHandPinky1]
24	-80.76699829	-4.885000229	-38.06000137	-2.287575722	-3.893091202	37.23735809	1.0
25	-80.76699829	-4.885000229	-38.06000137	-2.280758858	-3.956806183	37.15260696	1.0
26	-80.76699829	-4.885000229	-38.06000137	-2.262266159	-3.844322205	36.92490387	1.0
[RightHandPinky2]
24	-36	0	0.0009999999311	-0.3854523599	-1.851319909	23.54015732	1.0
25	-36	0	0.0009999999311	-0.3858875334	-1.852318764	23.5535984	1.0
26	-36	0	0.0009999999311	-0.3861536682	-1.852941751	23.56193542	1.0
[RightHandPinky3]
24	-21.14200211	0	0	-0.165948838	-1.229791403	15.36960888	1.0
25	-21.14200211	0	0	-0.1662674397	-1.23095417	15.3845377	1.0
26	-21.14200211	0	0	-0.16647017	-1.231692195	15.3940649	1.0
[RightHandPinky4]
24	-19.75699997	0	0	0	0	0	1.0
25	-19.75699997	0	0	0	0	0	1.0
26	-19.75699997	0	0	0	0	0	1.0
[RightHandRing1]
24	-91.03599548	-0.4390000105	-18.65100098	-2.093357325	-7.160796165	34.8768692	1.0
25	-91.03599548	-0.4390000105	-18.65100098	-2.064465761	-7.066292286	34.50985336	1.0
26	-91.03599548	-0.4390000105	-18.65100098	-2.010383844	-6.870226383	33.8201828	1.0
[RightHandRing2]
24	-31.54000092	0	0	-0.3693509996	-1.813900232	23.01700592	1.0
25	-31.54000092	0	0	-0.3691265583	-1.813363791	23.00977135	1.0
26	-31.54000092	0	0	-0.3690229058	-1.813095927	23.00620651	1.0
[RightHandRing3]
24	-29.37700081	0	0	-0.2648207247	-1.545003057	19.45153618	1.0
25	-29.37700081	0	0	-0.2646414638	-1.544495583	19.44490814	1.0
26	-29.37700081	0	0	-0.2645827234	-1.544313788	19.44254112	1.0
[RightHandRing4]
24	-26.47500038	0	0	0	0	0	1.0
25	-26.47500038	0	0	0	0	0	1.0
26	-26.47500038	0	0	0	0	0	1.0
[RightHandMiddle1]
24	-95.32500458	0	0	-1.952551007	-4.22452116	33.05126572	1.0
25	-95.32500458	0	0	-1.910296559	-4.079953671	32.50728226	1.0
26	-95.32500458	0	0	-1.852850676	-3.758403301	31.7645092	1.0
[RightHandMiddle2]
24	-36.98199844	0	0	-0.2421832085	-1.479347944	18.59354019	1.0
25	-36.98199844	0	0	-0.2422566712	-1.479598045	18.59677315	1.0
26	-36.98199844	0	0	-0.2424373627	-1.480125785	18.60373116	1.0
[RightHandMiddle3]
24	-29.50900078	0	0	-0.08741435409	-0.8984578252	11.13881683	1.0
25	-29.50900078	0	0	-0.08746556938	-0.8987165093	11.14209461	1.0
26	-29.50900078	0	0	-0.08757679909	-0.8992805481	11.14916801	1.0
[RightHandMiddle4]
24	-28.3390007	0	0.0009999999311	0	0	0	1.0
25	-28.3390007	0	0.0009999999311	0	0	0	1.0
26	-28.3390007	0	0.0009999999311	0	0	0	1.0
[RightHandIndex1]
24	-91.08300018	-5.167999744	22.60099792	-1.249001145	-0.9206238985	28.35616684	1.0
25	-91.08300018	-5.167999744	22.60099792	-1.264346838	-0.4848001897	27.77459908	1.0
26	-91.08300018	-5.167999744	22.60099792	-1.273331285	0.1080033928	26.84139824	1.0
[RightHandIndex2]
24	-36.76399994	0	0	-0.1030713469	-0.9725558162	12.09859848	1.0
25	-36.76399994	0	0	-0.1028100401	-0.9713466763	12.08334446	1.0
26	-36.76399994	0	0	-0.1026355997	-0.9705296159	12.07296085	1.0
[RightHandIndex3]
24	-28.83100128	0	0	-0.1072250307	-0.9917513728	12.34111214	1.0
25	-28.83100128	0	0	-0.1069583148	-0.990534842	12.32576561	1.0
26	-28.83100128	0	0	-0.1067754328	-0.989713192	12.31531239	1.0
[RightHandIndex4]
24	-23.92700005	0	0	0	0	0	1.0
25	-23.92700005	0	0	0	0	0	1.0
26	-23.92700005	0	0	0	0	0	1.0
[RightHandThumb1]
24	-24.64799881	-15.72700024	26.82600021	-0.1902875453	0.8218618631	0.3671384752	1.0
25	-24.64799881	-15.72700024	26.82600021	-0.1902875453	0.8218618631	0.3671384752	1.0
26	-24.64799881	-15.72700024	26.82600021	-0.1902875453	0.8218618631	0.3671384752	1.0
[RightHandThumb2]
24	-32.29800034	-18.64699936	18.64699936	17.89998055	-3.855155706	-17.99520683	1.0
25	-32.29800034	-18.64699936	18.64699936	17.89416504	-3.791582584	-18.05983162	1.0
26	-32.29800034	-18.64699936	18.64699936	17.8375473	-3.310853481	-18.01502419	1.0
[RightHandThumb3]
24	-26.52600098	-15.31399918	15.31399918	-1.707801819	11.5073595	-25.21730423	1.0
25	-26.52600098	-15.31399918	15.31399918	-1.515104651	11.05667305	-25.06962013	1.0
26	-26.52600098	-15.31399918	15.31399918	-1.033545494	9.953164101	-24.62310791	1.0
[RightHandThumb4]
24	-19.54599953	-11.28499985	11.28499985	0	0	0	1.0
25	-19.54599953	-11.28499985	11.28499985	0	0	0	1.0
26	-19.54599953	-11.28499985	11.28499985	0	0	0	1.0
[LeftUpLeg]
24	82.07800293	-67.51699829	-15.99599934	5.803468704	11.21434689	15.19219685	1.0
25	82.07800293	-67.51699829	-15.99599934	5.845602036	9.316074371	19.10433197	1.0
26	82.07800293	-67.51699829	-15.99599934	0.8982703686	5.211785793	20.47551155	1.0
[LeftLeg]
24	0	-443.7049866	2.845999956	20.44293213	-9.02088356	-4.405929089	1.0
25	0	-443.7049866	2.845999956	25.46875	-8.763918877	-5.14945364	1.0
26	0	-443.7049866	2.845999956	37.94923019	-7.786506653	-6.677118778	1.0
[LeftFoot]
24	0	-444.2789917	-29.8219986	-18.48390007	-15.02874184	-3.808743477	1.0
25	0	-444.2789917	-29.8219986	-7.979687214	-12.59392738	-5.773224831	1.0
26	0	-444.2789917	-29.8219986	1.776751518	-4.979992867	-6.652003288	1.0
[LeftToeBase]
24	0	-87.28699493	107.1060028	-15.62288284	-0.215350613	-0.6788314581	1.0
25	0	-87.28699493	107.1060028	-24.90327644	-1.00365901	-2.717857838	1.0
26	0	-87.28699493	107.1060028	-26.12725258	-1.992337584	-4.636879921	1.0
[RightUpLeg]
24	-82.07800293	-67.51699829	-15.99599934	-42.95767975	-13.92273617	-8.161236763	1.0
25	-82.07800293	-67.51699829	-15.99599934	-44.32912445	-11.19561291	-5.720299721	1.0
26	-82.07800293	-67.51699829	-15.99599934	-46.91584396	-9.780912399	-3.595454216	1.0
[RightLeg]
24	0	-443.7049866	2.861999989	20.10142136	0.8076601028	0.2477234006	1.0
25	0	-443.7049866	2.861999989	28.00033379	2.502360582	1.019168735	1.0
26	0	-443.7049866	2.861999989	39.32948685	1.519326329	1.169521332	1.0
[RightFoot]
24	0	-444.2770081	-29.83799934	4.047751904	-0.8981906772	6.562740326	1.0
25	0	-444.2770081	-29.83799934	11.7038517	-1.506169319	5.902866364	1.0
26	0	-444.2770081	-29.83799934	1.668800235	-0.697314024	4.231207371	1.0
[RightToeBase]
24	0	-87.28699493	107.1060028	-11.01361847	-2.040072286e-05	-2.202503765e-06	1.0
25	0	-87.28699493	107.1060028	-11.11248779	-1.727879635e-07	-1.132356601e-06	1.0
26	0	-87.28699493	107.1060028	-8.833285332	1.434384649e-05	7.493911767e-07	1.0
[EndOfFile]
